<svg width="80" height="80" viewBox="0 0 80 80" xmlns="http://www.w3.org/2000/svg">
  <!-- Solid dice face background -->
  <rect width="80" height="80" fill="#f8f8f8" stroke="none"/>
  
  <!-- Ten of Spades pattern - accurate to reference -->
  <g fill="#000000" stroke="none">
    <!-- Top row: 4 spades -->
    <path d="M12,18 Q12,12 16,12 Q20,12 20,18 Q18,20 16,18 Q14,20 12,18 Z"/>
    <rect x="15" y="18" width="2" height="4" fill="#000000"/>
    
    <path d="M28,18 Q28,12 32,12 Q36,12 36,18 Q34,20 32,18 Q30,20 28,18 Z"/>
    <rect x="31" y="18" width="2" height="4" fill="#000000"/>
    
    <path d="M44,18 Q44,12 48,12 Q52,12 52,18 Q50,20 48,18 Q46,20 44,18 Z"/>
    <rect x="47" y="18" width="2" height="4" fill="#000000"/>
    
    <path d="M60,18 Q60,12 64,12 Q68,12 68,18 Q66,20 64,18 Q62,20 60,18 Z"/>
    <rect x="63" y="18" width="2" height="4" fill="#000000"/>
    
    <!-- Second row: 2 spades -->
    <path d="M20,30 Q20,24 24,24 Q28,24 28,30 Q26,32 24,30 Q22,32 20,30 Z"/>
    <rect x="23" y="30" width="2" height="4" fill="#000000"/>
    
    <path d="M52,30 Q52,24 56,24 Q60,24 60,30 Q58,32 56,30 Q54,32 52,30 Z"/>
    <rect x="55" y="30" width="2" height="4" fill="#000000"/>
    
    <!-- Third row: 2 spades -->
    <path d="M20,42 Q20,36 24,36 Q28,36 28,42 Q26,44 24,42 Q22,44 20,42 Z"/>
    <rect x="23" y="42" width="2" height="4" fill="#000000"/>
    
    <path d="M52,42 Q52,36 56,36 Q60,36 60,42 Q58,44 56,42 Q54,44 52,42 Z"/>
    <rect x="55" y="42" width="2" height="4" fill="#000000"/>
    
    <!-- Bottom row: 2 spades -->
    <path d="M28,54 Q28,48 32,48 Q36,48 36,54 Q34,56 32,54 Q30,56 28,54 Z"/>
    <rect x="31" y="54" width="2" height="4" fill="#000000"/>
    
    <path d="M44,54 Q44,48 48,48 Q52,48 52,54 Q50,56 48,54 Q46,56 44,54 Z"/>
    <rect x="47" y="54" width="2" height="4" fill="#000000"/>
  </g>
  
  <!-- Corner index markers -->
  <g fill="#000000" font-family="Times, serif" font-weight="bold">
    <text x="4" y="14" font-size="11">10</text>
    <text x="6" y="24" font-size="10">♠</text>
    <text x="76" y="66" font-size="11" transform="rotate(180 76 66)">10</text>
    <text x="74" y="56" font-size="10" transform="rotate(180 74 56)">♠</text>
  </g>
</svg>
