<svg id="Layer_1" data-name="Layer 1" xmlns="http://www.w3.org/2000/svg" viewBox="0 0 1261.2976 277.0957"><defs><style>.cls-1{fill:#374c6b;}.cls-2{fill:#631432;}</style></defs><title>logo-greaterGood-peoplePetsPlanet_color</title><path class="cls-1" d="M71.5593,142.3963A93.8817,93.8817,0,0,0,82.1,141.8521a66.7006,66.7006,0,0,0,9.0563-1.6332,61.5263,61.5263,0,0,0,8.017-2.6229q3.76-1.5333,7.5222-3.5135V102.8062H84.723a4.1781,4.1781,0,0,1-3.0188-1.0888,3.5508,3.5508,0,0,1-1.1382-2.6723V88.1579h43.5494v54.4366a78.6725,78.6725,0,0,1-11.1349,6.73,75.7535,75.7535,0,0,1-12.3719,4.8,89.7436,89.7436,0,0,1-14.1039,2.87,132.1786,132.1786,0,0,1-16.331.94A73.6746,73.6746,0,0,1,41.8665,152.64a65.1372,65.1372,0,0,1-22.17-14.8463,67.3944,67.3944,0,0,1-14.5-22.9127A80.4525,80.4525,0,0,1,0,85.4856,82.4038,82.4038,0,0,1,5.0973,55.8918,63.6207,63.6207,0,0,1,42.51,18.1821a81.8842,81.8842,0,0,1,30.039-5.2456,92.8391,92.8391,0,0,1,15.6381,1.2371,73.2808,73.2808,0,0,1,13.4112,3.5632A62.588,62.588,0,0,1,113.03,23.3784a69.9683,69.9683,0,0,1,9.7986,7.4726l-5.4437,8.71a5.0084,5.0084,0,0,1-4.3549,2.6723,6.9973,6.9973,0,0,1-3.4641-1.0888q-2.4751-1.3847-5.5426-3.3652a47.7059,47.7059,0,0,0-7.4728-3.8106A60.289,60.289,0,0,0,86.1582,30.851a68.4947,68.4947,0,0,0-14.203-1.2867,57.5175,57.5175,0,0,0-21.6756,3.91A45.8486,45.8486,0,0,0,33.7507,44.6582,49.4938,49.4938,0,0,0,23.2591,62.2756a69.2142,69.2142,0,0,0-3.662,23.21,70.3151,70.3151,0,0,0,3.81,24.0014,50.6552,50.6552,0,0,0,10.739,17.8651,46.3208,46.3208,0,0,0,16.43,11.1842A55.25,55.25,0,0,0,71.5593,142.3963Z"/><path class="cls-1" d="M159.1513,156.352V56.09h10.0955q2.8695,0,3.959,1.0888a6.686,6.686,0,0,1,1.4847,3.7608l1.1876,15.6383q5.1455-10.49,12.7184-16.38a29.9662,29.9662,0,0,1,25.2882-4.9491,26.3276,26.3276,0,0,1,6.2355,2.6229l-2.2765,13.164a2.9754,2.9754,0,0,1-3.0682,2.4743,15.3488,15.3488,0,0,1-4.2558-.94,26.8677,26.8677,0,0,0-8.0172-.94,22.7059,22.7059,0,0,0-15.3907,5.3446q-6.1867,5.3448-10.3428,15.5392V156.352Z"/><path class="cls-1" d="M286.9292,54.5063a44.77,44.77,0,0,1,16.627,3.0185,37.3572,37.3572,0,0,1,13.1639,8.71,39.7281,39.7281,0,0,1,8.66,14.0545,54.2836,54.2836,0,0,1,3.1179,19.0529q0,4.1568-.89,5.5426t-3.3658,1.3856H257.5329a55.3409,55.3409,0,0,0,2.5735,16.5289,33.7816,33.7816,0,0,0,6.532,11.7286,26.1525,26.1525,0,0,0,9.8975,7.0273,33.977,33.977,0,0,0,12.8669,2.3259,37.7273,37.7273,0,0,0,11.4319-1.5341,54.4294,54.4294,0,0,0,8.2648-3.3156,63.04,63.04,0,0,0,5.79-3.3158,7.6712,7.6712,0,0,1,4.008-1.5341,3.88,3.88,0,0,1,3.3657,1.6826l4.9483,6.4334a33.4386,33.4386,0,0,1-7.8193,6.8788,48.6021,48.6021,0,0,1-9.749,4.8,61.8451,61.8451,0,0,1-10.7384,2.8209,65.6732,65.6732,0,0,1-10.9864.94,51.0021,51.0021,0,0,1-19.1517-3.5135,42.0127,42.0127,0,0,1-15.1434-10.2934,47.2052,47.2052,0,0,1-9.9472-16.7765,68.2182,68.2182,0,0,1-3.5629-22.9623A58.4165,58.4165,0,0,1,243.33,84.5947a46.168,46.168,0,0,1,9.2541-15.7866,42.59,42.59,0,0,1,14.7477-10.4913A48.418,48.418,0,0,1,286.9292,54.5063Zm.3954,12.9657q-12.7675,0-20.0921,7.3737T258.1267,95.284h54.5352A35.716,35.716,0,0,0,310.98,84.05a25.05,25.05,0,0,0-4.9493-8.8087,22.164,22.164,0,0,0-7.9678-5.7405A26.8868,26.8868,0,0,0,287.3246,67.472Z"/><path class="cls-1" d="M432.9153,156.352H425.096a9.3156,9.3156,0,0,1-4.157-.7918,4.3744,4.3744,0,0,1-2.0782-3.3652l-1.9794-9.3037q-3.96,3.5632-7.72,6.384a44.2264,44.2264,0,0,1-7.9177,4.7508,41.0009,41.0009,0,0,1-8.8584,2.92,50.8907,50.8907,0,0,1-10.4419.99,35.6454,35.6454,0,0,1-10.9371-1.633,24.9236,24.9236,0,0,1-8.8579-4.8993,23.3134,23.3134,0,0,1-5.9884-8.2646,28.8743,28.8743,0,0,1-2.2268-11.8275,22.0587,22.0587,0,0,1,3.2664-11.4316q3.2656-5.493,10.5408-9.749t19.0529-6.9778a145.2269,145.2269,0,0,1,28.8015-3.1179v-7.819q0-11.6775-4.9979-17.6671-4.9995-5.9874-14.7971-5.9879a31.3611,31.3611,0,0,0-10.8378,1.6329,41.0539,41.0539,0,0,0-7.6211,3.662q-3.2172,2.03-5.5423,3.6623a7.9982,7.9982,0,0,1-4.6026,1.633,5.2736,5.2736,0,0,1-3.1179-.94,7.145,7.145,0,0,1-2.1279-2.3259l-3.167-5.6417a57.2567,57.2567,0,0,1,17.9144-11.976,55.3286,55.3286,0,0,1,21.28-3.959A37.99,37.99,0,0,1,412.9221,57.08a30.66,30.66,0,0,1,10.9863,7.72,32.72,32.72,0,0,1,6.7305,11.976,49.9079,49.9079,0,0,1,2.2764,15.44Zm-45.7265-10.7884a35.9152,35.9152,0,0,0,8.5117-.94,33.5315,33.5315,0,0,0,7.2749-2.6723,38.4638,38.4638,0,0,0,6.5323-4.2064,56.4052,56.4052,0,0,0,6.0867-5.6417V111.2191a145.7451,145.7451,0,0,0-20.6857,1.93,58.1211,58.1211,0,0,0-13.8568,4.0088,19.3139,19.3139,0,0,0-7.77,5.8393,12.5586,12.5586,0,0,0-2.4244,7.5223,16.5843,16.5843,0,0,0,1.2865,6.8293,12.9165,12.9165,0,0,0,3.464,4.7014,13.64,13.64,0,0,0,5.147,2.6723A23.4978,23.4978,0,0,0,387.1888,145.5636Z"/><path class="cls-1" d="M498.3359,157.9355q-11.8771,0-18.2612-6.6314-6.3837-6.63-6.3837-19.1021V70.8372H461.6159a3.94,3.94,0,0,1-2.6724-.94,3.6493,3.6493,0,0,1-1.0888-2.92V59.95l16.43-2.0785,4.0577-30.9793a3.7432,3.7432,0,0,1,1.287-2.4249,4.0873,4.0873,0,0,1,2.7711-.94h8.9081V58.0692h28.7026v12.768H491.3089v60.1771q0,6.3351,3.0682,9.4026a10.7109,10.7109,0,0,0,7.9181,3.0682,13.9829,13.9829,0,0,0,4.8-.7424,20.6141,20.6141,0,0,0,3.5132-1.6329q1.485-.8907,2.5243-1.6332a3.3,3.3,0,0,1,1.8309-.7423,3.0359,3.0359,0,0,1,2.4741,1.6826l5.147,8.4128a32.8167,32.8167,0,0,1-10.9863,6.6811A37.3242,37.3242,0,0,1,498.3359,157.9355Z"/><path class="cls-1" d="M589.7863,54.5063a44.7725,44.7725,0,0,1,16.6275,3.0185,37.3617,37.3617,0,0,1,13.1639,8.71,39.7252,39.7252,0,0,1,8.66,14.0545,54.295,54.295,0,0,1,3.1179,19.0529q0,4.1568-.8906,5.5426T627.1,106.27H560.39a55.3377,55.3377,0,0,0,2.5735,16.5289,33.7787,33.7787,0,0,0,6.5322,11.7286,26.149,26.149,0,0,0,9.8976,7.0273A33.9743,33.9743,0,0,0,592.26,143.881a37.7286,37.7286,0,0,0,11.4319-1.5341,54.4219,54.4219,0,0,0,8.2643-3.3156,62.9724,62.9724,0,0,0,5.79-3.3158,7.6726,7.6726,0,0,1,4.0085-1.5341,3.88,3.88,0,0,1,3.3653,1.6826l4.9487,6.4334a33.4487,33.4487,0,0,1-7.8193,6.8788,48.6021,48.6021,0,0,1-9.749,4.8,61.8482,61.8482,0,0,1-10.7389,2.8209,65.6685,65.6685,0,0,1-10.9863.94,51.0041,51.0041,0,0,1-19.1518-3.5135,42.02,42.02,0,0,1-15.1434-10.2934,47.2027,47.2027,0,0,1-9.9466-16.7765,68.2027,68.2027,0,0,1-3.5635-22.9623,58.419,58.419,0,0,1,3.2168-19.5971,46.1746,46.1746,0,0,1,9.2542-15.7866A42.59,42.59,0,0,1,570.189,58.3168,48.42,48.42,0,0,1,589.7863,54.5063Zm.3959,12.9657q-12.7683,0-20.0921,7.3737-7.3255,7.3743-9.1057,20.4383H615.52A35.6985,35.6985,0,0,0,613.8372,84.05a25.0493,25.0493,0,0,0-4.9488-8.8087,22.164,22.164,0,0,0-7.9678-5.7405A26.89,26.89,0,0,0,590.1822,67.472Z"/><path class="cls-1" d="M662.1346,156.352V56.09H672.23q2.8692,0,3.9588,1.0888a6.6867,6.6867,0,0,1,1.4847,3.7608l1.1876,15.6383q5.1454-10.49,12.7184-16.38a29.9661,29.9661,0,0,1,25.2882-4.9491,26.3326,26.3326,0,0,1,6.2357,2.6229l-2.2764,13.164a2.9756,2.9756,0,0,1-3.0682,2.4743,15.354,15.354,0,0,1-4.2564-.94,26.8641,26.8641,0,0,0-8.0169-.94,22.7062,22.7062,0,0,0-15.3907,5.3446q-6.1863,5.3448-10.3431,15.5392V156.352Z"/><path class="cls-1" d="M816.24,142.3963a93.88,93.88,0,0,0,10.5407-.5442,66.7192,66.7192,0,0,0,9.0566-1.6332,61.5263,61.5263,0,0,0,8.017-2.6229q3.76-1.5333,7.5217-3.5135V102.8062H829.4035a4.1788,4.1788,0,0,1-3.0191-1.0888,3.5494,3.5494,0,0,1-1.1379-2.6723V88.1579h43.5489v54.4366a78.6563,78.6563,0,0,1-11.1344,6.73,75.7769,75.7769,0,0,1-12.3721,4.8,89.74,89.74,0,0,1-14.1042,2.87,132.1762,132.1762,0,0,1-16.331.94A73.6717,73.6717,0,0,1,786.547,152.64a65.1335,65.1335,0,0,1-22.1708-14.8463,67.3887,67.3887,0,0,1-14.5-22.9127A80.4526,80.4526,0,0,1,744.68,85.4856a82.4081,82.4081,0,0,1,5.0973-29.5938,63.6239,63.6239,0,0,1,37.4129-37.71A81.8836,81.8836,0,0,1,817.23,12.9365a92.845,92.845,0,0,1,15.6381,1.2371,73.2916,73.2916,0,0,1,13.4112,3.5632A62.5852,62.5852,0,0,1,857.71,23.3784a69.975,69.975,0,0,1,9.7987,7.4726l-5.4435,8.71a5.0094,5.0094,0,0,1-4.3552,2.6723,6.9982,6.9982,0,0,1-3.4641-1.0888q-2.4751-1.3847-5.5428-3.3652a47.69,47.69,0,0,0-7.4726-3.8106,60.2823,60.2823,0,0,0-10.3922-3.1176,68.4937,68.4937,0,0,0-14.2031-1.2867,57.5164,57.5164,0,0,0-21.6756,3.91,45.8519,45.8519,0,0,0-16.5291,11.1843A49.4885,49.4885,0,0,0,767.94,62.2756a69.2115,69.2115,0,0,0-3.6623,23.21,70.3076,70.3076,0,0,0,3.8108,24.0014,50.6571,50.6571,0,0,0,10.7385,17.8651,46.3219,46.3219,0,0,0,16.43,11.1842A55.2457,55.2457,0,0,0,816.24,142.3963Z"/><path class="cls-1" d="M944.4116,54.5063a51.5233,51.5233,0,0,1,19.8447,3.662A41.8619,41.8619,0,0,1,979.3,68.5608a46.0452,46.0452,0,0,1,9.5017,16.2813,64.7631,64.7631,0,0,1,3.316,21.3294,64.6381,64.6381,0,0,1-3.316,21.3785A46.0979,46.0979,0,0,1,979.3,143.7821a41.31,41.31,0,0,1-15.0439,10.3428,56.3119,56.3119,0,0,1-39.69,0,41.7659,41.7659,0,0,1-15.0936-10.3428,46.2479,46.2479,0,0,1-9.6005-16.2321,63.737,63.737,0,0,1-3.3652-21.3785,63.86,63.86,0,0,1,3.3652-21.3294,46.1922,46.1922,0,0,1,9.6005-16.2813,42.3275,42.3275,0,0,1,15.0936-10.3925A51.5159,51.5159,0,0,1,944.4116,54.5063Zm0,89.4738q14.8462,0,22.17-9.9472t7.3245-27.7626q0-17.913-7.3245-27.9111-7.3255-9.9959-22.17-9.9964a30.77,30.77,0,0,0-13.0646,2.5733,24.46,24.46,0,0,0-9.2543,7.4231A32.9762,32.9762,0,0,0,916.55,90.2858,63.8726,63.8726,0,0,0,914.719,106.27a63.2767,63.2767,0,0,0,1.8309,15.9351,32.4577,32.4577,0,0,0,5.5428,11.8275,24.6141,24.6141,0,0,0,9.2543,7.3737A30.7469,30.7469,0,0,0,944.4116,143.98Z"/><path class="cls-1" d="M1062.7864,54.5063a51.5226,51.5226,0,0,1,19.8447,3.662,41.8623,41.8623,0,0,1,15.044,10.3925,46.045,46.045,0,0,1,9.5016,16.2813,64.76,64.76,0,0,1,3.3161,21.3294,64.6355,64.6355,0,0,1-3.3161,21.3785,46.0977,46.0977,0,0,1-9.5016,16.2321,41.3106,41.3106,0,0,1-15.044,10.3428,56.3117,56.3117,0,0,1-39.6894,0,41.7659,41.7659,0,0,1-15.0936-10.3428,46.2464,46.2464,0,0,1-9.6-16.2321,63.7344,63.7344,0,0,1-3.3653-21.3785,63.8574,63.8574,0,0,1,3.3653-21.3294,46.1907,46.1907,0,0,1,9.6-16.2813,42.3275,42.3275,0,0,1,15.0936-10.3925A51.5158,51.5158,0,0,1,1062.7864,54.5063Zm0,89.4738q14.8463,0,22.17-9.9472t7.3246-27.7626q0-17.913-7.3246-27.9111-7.3255-9.9959-22.17-9.9964a30.77,30.77,0,0,0-13.0645,2.5733,24.46,24.46,0,0,0-9.2543,7.4231,32.9763,32.9763,0,0,0-5.5429,11.9266,63.8775,63.8775,0,0,0-1.8308,15.9845,63.2815,63.2815,0,0,0,1.8308,15.9351,32.4578,32.4578,0,0,0,5.5429,11.8275,24.6141,24.6141,0,0,0,9.2543,7.3737A30.7468,30.7468,0,0,0,1062.7864,143.98Z"/><path class="cls-1" d="M1211.1509,156.352A4.49,4.49,0,0,1,1206.4,152.69l-1.5835-12.1739a52.7833,52.7833,0,0,1-14.6978,12.52,37.6533,37.6533,0,0,1-18.9536,4.7011,36.2,36.2,0,0,1-15.6385-3.3155,32.4,32.4,0,0,1-11.9758-9.7493,46.4007,46.4007,0,0,1-7.6211-16.0339,82.5373,82.5373,0,0,1-2.6723-22.0715,69.175,69.175,0,0,1,2.9694-20.6364,50.295,50.295,0,0,1,8.5613-16.5784,39.27,39.27,0,0,1,31.8205-15.0444,36.2775,36.2775,0,0,1,15.7369,3.1178,37.7378,37.7378,0,0,1,11.6792,8.7593V10.561h17.618V156.352Zm-34.1466-12.8669a28.3735,28.3735,0,0,0,15.0936-3.9591,43.5036,43.5036,0,0,0,11.9266-11.1842V79.8439a27.88,27.88,0,0,0-10.64-9.1552,30.7233,30.7233,0,0,0-12.8177-2.6229q-14.055,0-21.5762,9.9966-7.5231,9.9978-7.5223,28.5049a72.434,72.434,0,0,0,1.6824,16.7763,32.2622,32.2622,0,0,0,4.9487,11.4813,19.4426,19.4426,0,0,0,8.017,6.5817A26.9244,26.9244,0,0,0,1177.0043,143.4851Z"/><path class="cls-2" d="M95.7743,251.2v17.9352H92.5648V224.6116H104.05q7.8348,0,11.8152,3.43t3.98,9.7856a13.1535,13.1535,0,0,1-1.0855,5.3807,11.9468,11.9468,0,0,1-3.1309,4.2321,14.6309,14.6309,0,0,1-4.9713,2.7688,20.5305,20.5305,0,0,1-6.6078.9913Zm0-2.58H104.05a15.8755,15.8755,0,0,0,5.2862-.8191,11.6329,11.6329,0,0,0,3.9488-2.2691,9.871,9.871,0,0,0,2.4857-3.4187,10.5746,10.5746,0,0,0,.8655-4.3014q0-5.1359-3.1624-7.9092t-9.4238-2.7734H95.7743Z"/><path class="cls-2" d="M178.3072,224.6116v2.6746H154.8655v17.9982H174.374v2.6117H154.8655v18.5644h23.4417v2.6746H151.6247V224.6116Z"/><path class="cls-2" d="M251.18,246.8577a27.0085,27.0085,0,0,1-1.5417,9.3608,20.7488,20.7488,0,0,1-4.3422,7.1743,19.2079,19.2079,0,0,1-6.702,4.5938,23.746,23.746,0,0,1-17.2431,0,19.2,19.2,0,0,1-6.7023-4.5938,20.93,20.93,0,0,1-4.3578-7.1743,28.8128,28.8128,0,0,1,0-18.69,20.93,20.93,0,0,1,4.3578-7.1743,19.3843,19.3843,0,0,1,6.7023-4.6095,21.9974,21.9974,0,0,1,8.59-1.6362,22.3589,22.3589,0,0,1,8.6531,1.62,19.1149,19.1149,0,0,1,6.702,4.61,20.9189,20.9189,0,0,1,4.3422,7.19A26.9145,26.9145,0,0,1,251.18,246.8577Zm-3.3352,0a25.41,25.41,0,0,0-1.29-8.37,18.0287,18.0287,0,0,0-3.6344-6.2931,15.59,15.59,0,0,0-5.6478-3.9491,18.9834,18.9834,0,0,0-7.3315-1.3687,18.6937,18.6937,0,0,0-7.2528,1.3687,15.9184,15.9184,0,0,0-5.6637,3.9491,17.9367,17.9367,0,0,0-3.6815,6.2931,27.5252,27.5252,0,0,0,0,16.7553,17.95,17.95,0,0,0,3.6815,6.2772,15.7347,15.7347,0,0,0,5.6637,3.9332,18.8809,18.8809,0,0,0,7.2528,1.3531,19.174,19.174,0,0,0,7.3315-1.3531A15.4137,15.4137,0,0,0,242.92,261.52a18.0416,18.0416,0,0,0,3.6344-6.2772A25.37,25.37,0,0,0,247.8449,246.8577Z"/><path class="cls-2" d="M288.4659,251.2v17.9352h-3.21V224.6116h11.4849q7.8349,0,11.8152,3.43t3.98,9.7856a13.1535,13.1535,0,0,1-1.0855,5.3807A11.9468,11.9468,0,0,1,308.32,247.44a14.6309,14.6309,0,0,1-4.9713,2.7688,20.5305,20.5305,0,0,1-6.6078.9913Zm0-2.58h8.2753a15.8757,15.8757,0,0,0,5.2863-.8191,11.6339,11.6339,0,0,0,3.9488-2.2691,9.8707,9.8707,0,0,0,2.4856-3.4187,10.5746,10.5746,0,0,0,.8655-4.3014q0-5.1359-3.1624-7.9092t-9.4238-2.7734h-8.2753Z"/><path class="cls-2" d="M347.5253,266.3977h21.1132v2.7374H344.3162V224.6116h3.2091Z"/><path class="cls-2" d="M425.8425,224.6116v2.6746H402.401v17.9982h19.5083v2.6117H402.401v18.5644h23.4415v2.6746H399.16V224.6116Z"/><path class="cls-2" d="M444.5318,266.4605a2.636,2.636,0,0,1,2.7379-2.6744,2.5226,2.5226,0,0,1,2.092.928,3.8,3.8,0,0,1,.74,2.4388,10.9229,10.9229,0,0,1-.33,2.6272,13.2239,13.2239,0,0,1-.96,2.6273,16.1359,16.1359,0,0,1-1.51,2.4859,16.3255,16.3255,0,0,1-1.9507,2.2024l-.4722-.4719a.7509.7509,0,0,1-.2515-.535.6036.6036,0,0,1,.0943-.3144,1.44,1.44,0,0,1,.22-.2832,11.6636,11.6636,0,0,0,.8025-.9283,12.45,12.45,0,0,0,.9751-1.4475,13.0905,13.0905,0,0,0,.8814-1.8406,8.4351,8.4351,0,0,0,.5188-2.14,2.3517,2.3517,0,0,1-.4246.0945,4.0264,4.0264,0,0,1-.5193.0315,2.4945,2.4945,0,0,1-1.9036-.7867A2.8211,2.8211,0,0,1,444.5318,266.4605Z"/><path class="cls-2" d="M521.7157,251.2v17.9352h-3.2091V224.6116h11.4846q7.835,0,11.8155,3.43t3.98,9.7856a13.1552,13.1552,0,0,1-1.0857,5.3807,11.951,11.951,0,0,1-3.1307,4.2321,14.6286,14.6286,0,0,1-4.9718,2.7688,20.5288,20.5288,0,0,1-6.6076.9913Zm0-2.58h8.2755a15.8744,15.8744,0,0,0,5.2863-.8191,11.63,11.63,0,0,0,3.9486-2.2691,9.8651,9.8651,0,0,0,2.4859-3.4187,10.58,10.58,0,0,0,.8655-4.3014q0-5.1359-3.1625-7.9092t-9.4238-2.7734h-8.2755Z"/><path class="cls-2" d="M604.2488,224.6116v2.6746H580.8073v17.9982h19.5083v2.6117H580.8073v18.5644h23.4415v2.6746H577.566V224.6116Z"/><path class="cls-2" d="M666.4867,224.6116v2.7374H650.8482v41.7861h-3.21V227.349H631.9061v-2.7374Z"/><path class="cls-2" d="M718.4034,230.0236a.8869.8869,0,0,1-.8179.5349,1.8154,1.8154,0,0,1-1.0576-.582,13.5677,13.5677,0,0,0-4.5144-2.596,13.9,13.9,0,0,0-8.3647.0945,8.9331,8.9331,0,0,0-3.0939,1.8879,8.0292,8.0292,0,0,0-1.8938,2.7689,8.596,8.596,0,0,0-.6469,3.3038,6.7491,6.7491,0,0,0,.96,3.7445,8.6478,8.6478,0,0,0,2.5371,2.5171,16.4273,16.4273,0,0,0,3.5763,1.7464q2,.7079,4.1119,1.4t4.1119,1.5261a14.8539,14.8539,0,0,1,3.5763,2.0923,9.6169,9.6169,0,0,1,2.5366,3.1,9.82,9.82,0,0,1,.9612,4.5782,14.4235,14.4235,0,0,1-.96,5.27,12.3027,12.3027,0,0,1-2.7845,4.295,13.0714,13.0714,0,0,1-4.4684,2.8792,16.2129,16.2129,0,0,1-6.0411,1.054,17.0708,17.0708,0,0,1-7.5832-1.5574,17.8559,17.8559,0,0,1-5.5695-4.2638l.8814-1.3843a1.1057,1.1057,0,0,1,.8809-.4719,1.2617,1.2617,0,0,1,.7247.3774q.4408.3777,1.0714.9283t1.5123,1.1956a12.4728,12.4728,0,0,0,2.048,1.1958,14.48,14.48,0,0,0,2.678.9282,14.2226,14.2226,0,0,0,3.4349.3775,13.0576,13.0576,0,0,0,4.7265-.8023,10.3364,10.3364,0,0,0,3.5132-2.1868,9.2732,9.2732,0,0,0,2.19-3.2882,10.9391,10.9391,0,0,0,.7559-4.0748,7.1827,7.1827,0,0,0-.9608-3.886,8.2859,8.2859,0,0,0-2.5371-2.5487,16.4024,16.4024,0,0,0-3.5762-1.7149q-2-.6916-4.1114-1.3528t-4.1125-1.479a14.1844,14.1844,0,0,1-3.5762-2.0923,9.5781,9.5781,0,0,1-2.5366-3.1781,10.528,10.528,0,0,1-.9608-4.7669,11.2612,11.2612,0,0,1,.8507-4.3109,10.7172,10.7172,0,0,1,2.4889-3.6656,12.2334,12.2334,0,0,1,4.0495-2.5487,14.7738,14.7738,0,0,1,5.4983-.96,16.6608,16.6608,0,0,1,6.2229,1.1013,14.9013,14.9013,0,0,1,5.0236,3.3668Z"/><path class="cls-2" d="M737.9111,266.4605a2.636,2.636,0,0,1,2.7379-2.6744,2.5227,2.5227,0,0,1,2.092.928,3.8,3.8,0,0,1,.74,2.4388,10.9279,10.9279,0,0,1-.33,2.6272,13.2239,13.2239,0,0,1-.96,2.6273,16.1437,16.1437,0,0,1-1.51,2.4859,16.3255,16.3255,0,0,1-1.9507,2.2024l-.4722-.4719a.7509.7509,0,0,1-.2515-.535.6036.6036,0,0,1,.0943-.3144,1.44,1.44,0,0,1,.22-.2832,11.6636,11.6636,0,0,0,.8025-.9283,12.45,12.45,0,0,0,.9751-1.4475,13.0905,13.0905,0,0,0,.8814-1.8406,8.4351,8.4351,0,0,0,.5188-2.14,2.3536,2.3536,0,0,1-.4246.0945,4.0264,4.0264,0,0,1-.5193.0315,2.4945,2.4945,0,0,1-1.9036-.7867A2.8211,2.8211,0,0,1,737.9111,266.4605Z"/><path class="cls-2" d="M815.0949,251.2v17.9352h-3.209V224.6116h11.4846q7.8349,0,11.8155,3.43t3.98,9.7856a13.1552,13.1552,0,0,1-1.0857,5.3807A11.951,11.951,0,0,1,834.95,247.44a14.6286,14.6286,0,0,1-4.9718,2.7688,20.5288,20.5288,0,0,1-6.6076.9913Zm0-2.58h8.2756a15.8749,15.8749,0,0,0,5.2863-.8191,11.63,11.63,0,0,0,3.9485-2.2691,9.8638,9.8638,0,0,0,2.4859-3.4187,10.5779,10.5779,0,0,0,.8656-4.3014q0-5.1359-3.1625-7.9092t-9.4238-2.7734h-8.2756Z"/><path class="cls-2" d="M874.1548,266.3977h21.1133v2.7374H870.9453V224.6116h3.21Z"/><path class="cls-2" d="M959.3,269.1351h-2.4859a1.09,1.09,0,0,1-.7236-.2361,1.5582,1.5582,0,0,1-.44-.6136l-5.255-12.9321H928.5267l-5.2233,12.9321a1.3565,1.3565,0,0,1-.4409.598,1.1684,1.1684,0,0,1-.7549.2517h-2.4542l18.2182-44.5235h3.21Zm-29.798-16.1732H949.451l-9.0935-22.4979q-.22-.5346-.44-1.2112t-.4405-1.4316q-.22.7551-.4409,1.4316t-.4405,1.2427Z"/><path class="cls-2" d="M991.2673,224.7217a1.4825,1.4825,0,0,1,.5347.4878l28.8224,38.5766q-.0945-.9441-.0942-1.825V224.6116h2.8316v44.5235H1021.82a1.356,1.356,0,0,1-1.164-.6294l-28.9485-38.6393q.0945.9436.0943,1.7935v37.4752h-2.8V224.6116h1.5733A1.7733,1.7733,0,0,1,991.2673,224.7217Z"/><path class="cls-2" d="M1085.9149,224.6116v2.6746h-23.4414v17.9982h19.5082v2.6117h-19.5082v18.5644h23.4414v2.6746h-26.6827V224.6116Z"/><path class="cls-2" d="M1148.1526,224.6116v2.7374h-15.6385v41.7861h-3.21V227.349h-15.7327v-2.7374Z"/><path class="cls-1" d="M1232.638,14.34a14.0616,14.0616,0,0,1,.5142-3.8128,14.4717,14.4717,0,0,1,1.4457-3.4247A14.4012,14.4012,0,0,1,1239.74,1.96a14.5407,14.5407,0,0,1,3.4149-1.4455,14.3521,14.3521,0,0,1,7.616,0,14.5078,14.5078,0,0,1,3.4251,1.4455,14.402,14.402,0,0,1,5.1418,5.1421,14.5093,14.5093,0,0,1,1.4458,3.4247,14.3212,14.3212,0,0,1,0,7.6062,14.4051,14.4051,0,0,1-6.5876,8.5473,14.4958,14.4958,0,0,1-3.4251,1.4457,14.3575,14.3575,0,0,1-7.616,0A14.5286,14.5286,0,0,1,1239.74,26.68a14.3607,14.3607,0,0,1-6.5876-8.5376A13.9561,13.9561,0,0,1,1232.638,14.34Zm2.62,0a12.2628,12.2628,0,0,0,.9024,4.7152,11.842,11.842,0,0,0,2.4833,3.8129,11.6425,11.6425,0,0,0,3.716,2.5514,11.3686,11.3686,0,0,0,4.5985.9314,11.5093,11.5093,0,0,0,4.6184-.9314,11.6992,11.6992,0,0,0,3.7448-2.5514,11.9116,11.9116,0,0,0,2.5033-3.8129,12.1552,12.1552,0,0,0,.9116-4.7152,12.436,12.436,0,0,0-.4169-3.24,12.5945,12.5945,0,0,0-1.1738-2.9007,11.5124,11.5124,0,0,0-1.834-2.445,12.1,12.1,0,0,0-2.3768-1.8821,11.3948,11.3948,0,0,0-2.8136-1.2127,11.893,11.893,0,0,0-6.3157,0,11.4185,11.4185,0,0,0-2.8039,1.2127,11.6087,11.6087,0,0,0-2.3579,1.8821,11.8733,11.8733,0,0,0-1.814,2.445,12.263,12.263,0,0,0-1.1641,2.9007A12.7034,12.7034,0,0,0,1235.2576,14.34Zm9.5272,2.3479v6.3062h-4.1524V5.5884h6.2286q3.6282,0,5.3165,1.3a4.422,4.422,0,0,1,1.6885,3.7255,5.1741,5.1741,0,0,1-.8927,3.0172,5.1272,5.1272,0,0,1-2.7747,1.8919,2.4158,2.4158,0,0,1,.737.6307,8.051,8.051,0,0,1,.5823.8829l3.5122,5.9569h-3.9972a1.2725,1.2725,0,0,1-1.2225-.64l-2.7942-5.1032a1.4869,1.4869,0,0,0-.4363-.4172,1.4463,1.4463,0,0,0-.7278-.1454Zm0-2.9688h1.7269a6.6832,6.6832,0,0,0,1.63-.165,2.3,2.3,0,0,0,.9991-.4947,1.7111,1.7111,0,0,0,.4948-.815,4.1255,4.1255,0,0,0,.1357-1.106,4.3126,4.3126,0,0,0-.1163-1.0575,1.5367,1.5367,0,0,0-.4368-.7567,1.9987,1.9987,0,0,0-.8922-.4464,6.1066,6.1066,0,0,0-1.4652-.1454h-2.0762Z"/></svg>